HIERARCHY
ROOT hip
{
	OFFSET 0.000000 0.000000 0.000000 
	CHANNELS 6 Xposition Yposition Zposition Zrotation Xrotation Yrotation
	JOINT abdomen
	{
		OFFSET 0.000000 3.402643 0.000000 
		CHANNELS 3 Zrotation Xrotation Yrotation
		JOINT chest
		{
			OFFSET 0.000000 8.438565 -0.680529 
			CHANNELS 3 Zrotation Xrotation Yrotation
			JOINT neck
			{
				OFFSET 0.000000 10.207942 -0.272212 
				CHANNELS 3 Zrotation Xrotation Yrotation
				JOINT head
				{
					OFFSET 0.000000 3.130431 0.000000 
					CHANNELS 3 Zrotation Xrotation Yrotation
					End Site
					{
						OFFSET 0.000000 3.130435 0.000000 
					}
				}
			}
			JOINT lCollar
			{
				OFFSET 3.470700 6.669187 -0.816635 
				CHANNELS 3 Zrotation Xrotation Yrotation
				JOINT lShldr
				{
					OFFSET 3.198488 0.000000 0.000000 
					CHANNELS 3 Zrotation Xrotation Yrotation
					JOINT lForeArm
					{
						OFFSET 10.139888 0.000000 0.000000 
						CHANNELS 3 Zrotation Xrotation Yrotation
						JOINT lHand
						{
							OFFSET 8.370511 0.000000 0.000000 
							CHANNELS 3 Zrotation Xrotation Yrotation
							End Site
							{
								OFFSET 4.083176 0.000000 0.000000 
							}
						}
					}
				}
			}
			JOINT rCollar
			{
				OFFSET -3.470700 6.669187 -0.816635 
				CHANNELS 3 Zrotation Xrotation Yrotation
				JOINT rShldr
				{
					OFFSET -3.198488 0.000000 0.000000 
					CHANNELS 3 Zrotation Xrotation Yrotation
					JOINT rForeArm
					{
						OFFSET -10.139888 0.000000 0.000000 
						CHANNELS 3 Zrotation Xrotation Yrotation
						JOINT rHand
						{
							OFFSET -8.370511 0.000000 0.000000 
							CHANNELS 3 Zrotation Xrotation Yrotation
							End Site
							{
								OFFSET -4.083176 0.000000 0.000000 
							}
						}
					}
				}
			}
		}
	}
	JOINT lThigh
	{
		OFFSET 5.308129 -1.633274 1.361059 
		CHANNELS 3 Zrotation Xrotation Yrotation
		JOINT lShin
		{
			OFFSET -2.041588 -20.007561 0.000000 
			CHANNELS 3 Zrotation Xrotation Yrotation
			JOINT lFoot
			{
				OFFSET 0.000000 -19.190928 -1.224953 
				CHANNELS 3 Zrotation Xrotation Yrotation
				End Site
				{
					OFFSET 0.000000 -2.449906 4.627600 
				}
			}
		}
	}
	JOINT rThigh
	{
		OFFSET -5.308129 -1.633274 1.361059 
		CHANNELS 3 Zrotation Xrotation Yrotation
		JOINT rShin
		{
			OFFSET 2.041588 -20.007561 0.000000 
			CHANNELS 3 Zrotation Xrotation Yrotation
			JOINT rFoot
			{
				OFFSET 0.000000 -19.190928 -1.224953 
				CHANNELS 3 Zrotation Xrotation Yrotation
				End Site
				{
					OFFSET 0.000000 -2.449906 4.627600 
				}
			}
		}
	}
}
MOTION
Frames: 16
Frame Time: 0.033333
-0.738417 34.949768 -2.219417 1.641273 1.610649 42.541744 -1.641413 1.776619 -19.949467 -3.230069 -3.880562 -23.949852 0.810547 -0.029296 -0.155836 0.990357 24.879545 -0.670595 -4.232307 -1.022834 -4.841645 -39.275600 -7.146482 1.269630 -16.642239 -26.765171 -3.170276 -4.183863 -13.696379 -9.134563 3.288767 9.342317 1.768104 44.010994 -2.458880 5.610648 20.924299 -16.740328 22.473240 -12.555865 -31.729055 -0.320204 5.752827 -24.696039 -12.847369 -56.040169 81.030121 55.613552 -37.938007 -61.817890 -2.212624 -13.599947 -44.310387 -33.080112 -83.138443 77.005173 74.510269 4.096448 -41.167969 -23.152679 
-0.767304 34.736343 -2.185890 1.641274 1.610661 42.043690 -1.602316 1.757128 -19.872999 -3.317970 -3.831476 -23.904163 0.810547 -0.029296 -0.155836 0.993441 25.260342 -0.677721 -4.102845 -1.031528 -4.725508 -39.454144 -6.783755 1.809547 -17.221214 -30.056028 -3.212203 -3.998746 -13.713950 -9.137589 3.209857 9.327298 2.202654 44.305992 -2.454518 6.343730 20.746212 -15.906824 23.373550 -13.043986 -32.867908 -0.552727 5.508068 -24.753489 -13.013482 -58.490253 81.469070 57.988495 -38.159153 -62.429459 -1.942345 -13.572837 -44.789932 -33.139198 -85.949875 76.861404 77.210846 4.027597 -41.413097 -22.972662 
-0.789924 34.569126 -2.170459 1.641274 1.610642 41.614010 -1.543679 1.737655 -19.757858 -3.356893 -3.772830 -23.834419 0.810547 -0.029296 -0.155836 0.993201 25.231054 -0.677312 -4.127839 -1.020186 -4.579176 -39.787663 -6.381001 2.348541 -17.838274 -33.108547 -3.316226 -3.788001 -13.752206 -9.125535 3.173570 9.312935 2.617320 44.646488 -2.451132 6.998621 20.420124 -14.827259 24.185413 -13.478024 -33.903091 -0.752836 5.239797 -24.772869 -13.083721 -60.049335 81.821991 59.500973 -38.322010 -62.952225 -1.592848 -13.615078 -44.953815 -33.220795 -88.104462 76.721413 79.255379 4.277964 -41.673264 -22.414585 
-0.806379 34.448917 -2.172597 1.641274 1.610670 41.272217 -1.475257 1.698659 -19.634243 -3.356669 -3.714339 -23.733900 0.810547 -0.029296 -0.155836 0.990827 24.938128 -0.671712 -4.270673 -1.008919 -4.441949 -40.190498 -6.018054 2.837918 -18.433918 -35.663631 -3.445646 -3.597006 -13.779780 -9.132142 3.204730 9.288503 2.982257 44.991051 -2.449498 7.516673 19.918232 -13.470482 24.879686 -13.867877 -34.815605 -0.936115 5.101436 -24.823820 -13.085313 -61.464802 82.091721 60.784756 -38.283142 -63.335415 -1.206301 -13.656808 -45.133045 -33.237183 -89.594551 76.826096 80.790611 4.113829 -41.953411 -22.257694 
-0.816767 34.376530 -2.191779 1.641274 1.610661 41.028072 -1.426394 1.679167 -19.518738 -3.336913 -3.665667 -23.621784 0.810547 -0.029296 -0.155836 0.987335 24.498743 -0.663361 -4.481905 -0.992448 -4.314076 -40.543816 -5.810698 3.209870 -18.988571 -37.462349 -3.583255 -3.473836 -13.794570 -9.113853 3.295258 9.253890 3.287555 45.279106 -2.447526 7.858774 19.221033 -11.798605 25.421179 -14.187485 -35.569592 -1.086037 5.007254 -24.878696 -13.094379 -62.845520 82.236153 62.164207 -38.155281 -63.527657 -0.994894 -13.681208 -45.294949 -33.260910 -90.428680 76.611099 81.485153 4.421250 -41.934906 -21.801291 
-0.821193 34.352768 -2.227479 1.641274 1.610660 40.901115 -1.397077 1.669427 -19.432018 -3.297591 -3.617059 -23.538342 0.810547 -0.029296 -0.155836 0.983626 24.020302 -0.654334 -4.713975 -0.983584 -4.215316 -40.756573 -5.838767 3.406363 -19.401377 -38.227028 -3.672760 -3.482336 -13.798070 -9.119075 3.466146 9.212149 3.523223 45.480293 -2.446714 7.995613 18.328068 -9.792700 25.814230 -14.427441 -36.129433 -1.196805 4.901671 -24.931213 -13.067736 -63.503819 82.314407 62.758720 -38.309391 -63.769985 -0.984631 -13.698301 -45.470139 -33.265717 -90.774147 77.000923 82.055946 3.695490 -41.904102 -22.170025 
-0.819753 34.378433 -2.279175 1.641274 1.610660 40.901115 -1.397092 1.688951 -19.402414 -3.258276 -3.568454 -23.484270 0.810547 -0.029296 -0.155836 0.980816 23.649258 -0.647226 -4.917861 -0.984957 -4.136208 -40.687103 -6.219080 3.389108 -19.616085 -37.716877 -3.669132 -3.693146 -13.761662 -9.130795 3.720551 9.160305 3.669444 45.546314 -2.466758 7.878438 17.210098 -7.400542 26.048702 -14.564507 -36.476147 -1.262917 4.860381 -24.983643 -13.033387 -63.433228 82.309860 62.670105 -38.242981 -63.620125 -1.137596 -13.740920 -45.649204 -33.282959 -90.563667 77.060097 81.885056 3.521334 -41.707340 -22.320547 
-0.812551 34.454330 -2.346339 1.641273 1.610645 41.067131 -1.445979 1.737728 -19.458342 -3.248390 -3.539242 -23.501728 0.810547 -0.029296 -0.155836 0.979215 23.434446 -0.643218 -5.054574 -0.986563 -4.115908 -40.295692 -7.001040 3.099302 -19.601580 -35.758713 -3.556230 -4.093690 -13.704336 -9.132503 4.058878 9.088606 3.726145 45.444141 -2.488392 7.487566 15.883569 -4.631597 26.127499 -14.597994 -36.578201 -1.278616 4.798330 -25.040375 -13.014084 -62.880604 82.227615 62.199814 -37.828960 -63.423344 -0.992795 -14.162398 -45.303104 -33.753429 -89.926491 76.797180 81.149193 3.981503 -41.770626 -21.859423 
-0.799686 34.581268 -2.428447 1.641273 1.610661 41.408928 -1.563278 1.805965 -19.589392 -3.248356 -3.529490 -23.579849 0.810547 -0.029296 -0.155836 0.977347 23.180576 -0.638651 -5.123452 -0.991399 -4.115480 -39.701260 -8.067880 2.613779 -19.364954 -32.524399 -3.389465 -4.657630 -13.632711 -9.148776 4.461647 9.012350 3.683801 45.244343 -2.511099 6.881638 14.408777 -1.541772 26.095200 -14.497972 -36.405704 -1.231573 4.788981 -25.097235 -12.970413 -61.203266 82.116585 60.552357 -37.379444 -63.101616 -0.998681 -14.430731 -45.199696 -34.129280 -88.530876 76.655884 79.640930 4.401236 -41.421108 -21.550335 
-0.781262 34.760052 -2.524976 1.641274 1.610644 41.936264 -1.768523 1.874108 -19.805727 -3.277847 -3.568388 -23.749159 0.810547 -0.029296 -0.155836 0.973275 22.614254 -0.628185 -5.144242 -0.995375 -4.154281 -39.061687 -9.252222 2.008564 -18.983475 -28.335009 -3.213835 -5.274245 -13.540432 -9.155423 4.905159 8.941224 3.562499 45.058983 -2.542853 6.148655 12.841589 1.758147 25.983692 -14.254189 -35.922539 -1.114483 4.858036 -25.185253 -12.940624 -59.015129 81.837181 58.494995 -36.916470 -62.488483 -1.214177 -14.854440 -44.874027 -34.612854 -86.376190 76.848457 77.653908 4.328297 -41.111385 -21.669962 
-0.757376 34.991482 -2.635397 1.641274 1.610650 42.668686 -2.091022 1.922548 -20.125488 -3.327127 -3.665700 -24.011787 0.810547 -0.029296 -0.155836 0.965578 21.491365 -0.607532 -5.137015 -1.011185 -4.212730 -38.532204 -10.387716 1.370116 -18.464186 -23.467873 -3.063653 -5.881105 -13.459569 -9.174506 5.359007 8.861936 3.372334 44.967587 -2.566838 5.366726 11.233459 5.161804 25.819798 -13.881978 -35.119698 -0.947145 4.971140 -25.308020 -12.816054 -55.690414 81.467209 55.428642 -36.499237 -61.586674 -1.647355 -15.283195 -44.435486 -35.062458 -83.195320 76.750923 74.486931 4.502974 -40.642803 -21.880552 
-0.728131 35.276363 -2.759188 1.641274 1.610670 43.635487 -2.540538 1.951205 -20.529106 -3.415845 -3.831093 -24.379471 0.810547 -0.029296 -0.155836 0.953339 19.538515 -0.572614 -5.110464 -1.026719 -4.281055 -38.236210 -11.317234 0.776826 -17.825157 -18.208189 -2.968981 -6.366219 -13.384862 -9.179221 5.810520 8.792844 3.123567 45.062038 -2.579479 4.623834 9.661263 8.550317 25.611431 -13.349018 -33.943268 -0.697031 5.230304 -25.552338 -12.722875 -52.146610 80.920731 52.164474 -36.018230 -60.346210 -2.226577 -15.730240 -43.884701 -35.531956 -78.805931 76.765503 70.217499 4.465428 -40.066143 -22.182615 
-0.693626 35.615498 -2.895822 1.641274 1.610656 44.846424 -3.107218 1.921002 -21.038847 -3.544123 -4.074247 -24.881641 0.810547 -0.029296 -0.155836 0.938181 16.736162 -0.523939 -5.093122 -1.030982 -4.359025 -38.303368 -11.884587 0.319346 -17.088932 -12.845335 -2.920610 -6.671377 -13.349870 -9.182877 6.219665 8.750321 2.816723 45.442936 -2.571888 3.988396 8.154099 11.826296 25.345764 -12.677835 -32.372643 -0.384026 5.634777 -25.858858 -12.589213 -48.796497 80.205833 49.277214 -36.044693 -58.681316 -3.625239 -16.096600 -43.175549 -35.829556 -73.486374 76.728676 65.052513 4.437599 -39.373238 -22.889835 
-0.653962 36.009701 -3.044776 1.641274 1.610665 46.321053 -3.517350 1.793492 -21.628660 -3.711525 -4.278150 -25.540928 0.810547 -0.029296 -0.155836 0.926072 14.031444 -0.478301 -5.085119 -1.035419 -4.417466 -38.858410 -11.904264 0.089824 -16.238138 -7.673057 -2.937472 -6.672682 -13.341170 -9.186838 6.566683 8.714713 2.461669 46.203232 -2.553694 3.548451 6.791764 14.880581 24.999514 -11.847666 -30.390633 0.006455 5.974431 -25.930353 -12.347115 -45.712666 79.439903 46.612156 -35.589802 -57.151035 -4.983739 -16.424641 -42.468563 -36.118488 -69.115707 76.322273 60.706905 4.935663 -38.761181 -23.534435 
-0.595706 36.492687 -3.196629 1.641274 1.610652 47.844482 -3.565774 1.559479 -22.197758 -3.917630 -4.364818 -26.275845 0.810547 -0.029296 -0.155836 0.919627 12.322683 -0.450033 -5.115376 -1.027937 -4.475647 -40.025620 -11.230417 0.169257 -15.297066 -2.988196 -2.992793 -6.319066 -13.402190 -9.183425 6.829612 8.717380 2.068464 47.442940 -2.505399 3.382141 5.600956 17.594095 24.541258 -10.882022 -27.954262 0.449762 6.616255 -25.934193 -11.716616 -42.922874 78.573364 44.406673 -35.410133 -55.484657 -7.096798 -16.563957 -41.533329 -36.209797 -64.516953 75.703400 56.157784 5.664772 -38.178726 -24.243324 
-0.451276 37.229893 -3.306382 1.641274 1.610661 48.303478 -3.330931 1.296633 -22.298147 -4.103500 -4.324861 -26.540449 0.810547 -0.029296 -0.155836 0.915943 11.219306 -0.432131 -5.193069 -1.010309 -4.504263 -41.952061 -9.696658 0.643967 -14.273578 0.935443 -3.092479 -5.498919 -13.500523 -9.167568 6.978695 8.757561 1.646795 49.243065 -2.426933 3.567654 4.665750 19.864262 23.916191 -9.780330 -25.033710 0.942650 6.648874 -25.158171 -11.318892 -36.464539 76.628716 38.418865 -33.895630 -53.861248 -6.439497 -16.559896 -40.241467 -36.168968 -56.384495 74.770195 48.071445 5.858537 -37.109169 -23.977743 
